<svg width="1530" height="312" viewBox="0 0 1530 312" fill="none" xmlns="http://www.w3.org/2000/svg">
<path d="M445.169 0C492.273 1.72493e-05 531.441 6.65579 562.673 19.9678C593.905 33.2797 617.328 51.584 632.944 74.8799C648.56 98.1758 656.369 124.928 656.369 155.136C656.369 171.52 653.937 187.392 649.073 202.752C644.209 217.856 636.529 232.064 626.033 245.376C615.537 258.432 601.969 269.952 585.329 279.936C568.689 289.664 548.721 297.216 525.425 302.592C502.385 308.224 475.633 311.04 445.169 311.04C423.409 311.04 403.441 309.504 385.265 306.432C367.345 303.616 351.089 299.648 336.497 294.528C321.905 289.152 308.977 282.752 297.713 275.328C286.705 267.904 277.105 259.712 268.913 250.752C260.977 241.536 254.32 231.808 248.944 221.568C243.824 211.329 239.985 200.576 237.425 189.312C235.121 178.048 233.969 166.656 233.969 155.136C233.969 140.032 235.889 125.696 239.729 112.128C243.824 98.56 249.713 86.0161 257.393 74.4961C265.329 62.9761 275.057 52.7364 286.577 43.7764C298.353 34.5604 312.049 26.7516 327.665 20.3516C343.281 13.6957 360.817 8.70395 380.272 5.37598C399.984 1.79198 421.617 0 445.169 0ZM212.336 11.5195C217.859 11.5195 222.336 15.9949 222.336 21.5176V187.775C222.336 210.047 218.624 228.864 211.2 244.224C203.776 259.328 193.792 271.487 181.248 280.703C168.704 289.919 154.624 296.576 139.008 300.672C123.392 304.768 107.392 306.815 91.0078 306.815C73.6001 306.815 57.2162 305.28 41.8564 302.208C28.4966 299.536 16.2011 295.217 4.97168 289.253C1.85075 287.595 0 284.296 0 280.762V178.812C7.47681e-05 173.225 6.07201 169.668 11.1357 172.031C14.9757 173.567 18.944 174.719 23.04 175.487C27.1359 176.255 30.9757 176.64 34.5596 176.64C42.4956 176.64 49.1523 174.72 54.5283 170.88C60.1602 167.04 62.9755 161.024 62.9756 152.832V21.5186C62.9757 15.996 67.453 11.5198 72.9756 11.5195H212.336ZM1109.05 12C1117.82 12 1122.34 22.4916 1116.32 28.8682L969.026 184.721C968.978 184.772 968.951 184.761 968.951 184.831C968.951 184.983 969.074 185.183 969.226 185.184H1109.85C1115.38 185.184 1119.85 189.661 1119.85 195.184V290C1119.85 295.523 1115.38 300 1109.85 300H680.008C671.015 300 666.592 289.054 673.061 282.807L834.503 126.896C834.555 126.845 834.585 126.694 834.585 126.621C834.585 126.472 834.464 126.432 834.315 126.432H680.245C674.722 126.432 670.245 121.954 670.245 116.432V22C670.245 16.4772 674.722 12 680.245 12H1109.05ZM1443.59 12C1448.04 12 1451.96 14.9387 1453.19 19.2148C1457.07 32.7177 1460.85 46.3128 1464.54 60C1469.15 75.872 1473.63 91.872 1477.98 108C1482.59 123.872 1487.2 139.872 1491.81 156C1496.42 171.872 1500.9 187.872 1505.25 204C1509.86 219.872 1514.34 235.872 1518.69 252C1522.08 263.682 1525.47 275.434 1528.86 287.255C1530.69 293.641 1525.9 300 1519.25 300H1369.66C1364.8 300 1360.64 296.501 1359.81 291.709L1356.16 270.659C1355.33 265.867 1351.17 262.368 1346.3 262.368H1310.91C1306.05 262.368 1301.89 265.867 1301.06 270.659L1297.41 291.709C1296.57 296.501 1292.42 300 1287.55 300H1145.26C1138.61 300 1133.82 293.641 1135.62 287.248C1138.97 275.43 1142.24 263.68 1145.44 252C1150.05 235.872 1154.53 219.872 1158.88 204C1163.49 187.872 1167.97 171.872 1172.32 156C1176.93 139.872 1181.41 123.872 1185.76 108C1190.37 91.872 1194.85 75.872 1199.2 60C1203.1 46.3598 1206.9 32.8106 1210.62 19.3535C1211.81 15.0116 1215.76 12.0001 1220.27 12H1443.59Z" fill="white"/>
</svg>
